<svg xmlns="http://www.w3.org/2000/svg" width="159.147" height="167.104" viewBox="0 0 159.147 167.104">
  <path id="Path_3" data-name="Path 3" d="M166.525,0a23.865,23.865,0,0,0-18.888,38.461L136.312,48.832a39.7,39.7,0,0,0-59.1,3.15L66.654,43.735a2.606,2.606,0,0,0-3.71.456,2.655,2.655,0,0,0,.456,3.72l10.745,8.4a39.723,39.723,0,0,0-2.476,36.419L50.19,102.171a10.616,10.616,0,1,0,2.279,6.579,8.454,8.454,0,0,0-.166-1.7l21.81-9.574a39.812,39.812,0,0,0,31.4,19.127v16.018a2.652,2.652,0,0,0,5.3,0V116.6a39.549,39.549,0,0,0,25.064-11.169l10.693,9.626a21.312,21.312,0,1,0,3.575-3.9l-10.734-9.677a39.641,39.641,0,0,0,.393-48.646l11.542-10.568a23.643,23.643,0,0,0,15.168,5.471,23.872,23.872,0,1,0,0-47.744Zm0,5.3A18.567,18.567,0,1,1,155.3,38.647a18.031,18.031,0,0,1-3.74-3.792,18.357,18.357,0,0,1-3.606-10.983A18.59,18.59,0,0,1,166.525,5.3ZM47.165,15.915A15.915,15.915,0,1,0,63.079,31.829,15.932,15.932,0,0,0,47.165,15.915Zm0,5.3a10.61,10.61,0,1,1-10.61,10.61A10.617,10.617,0,0,1,47.165,21.22Zm61.006,21.22a34.447,34.447,0,0,1,24.245,9.978,30.617,30.617,0,0,1,3.471,4.031,34.387,34.387,0,0,1-.394,41.486,31.9,31.9,0,0,1-3.554,3.948,34.236,34.236,0,0,1-21.116,9.418c-.87.083-1.751.1-2.653.1s-1.782-.021-2.652-.1a34.414,34.414,0,0,1-26.493-16,33.435,33.435,0,0,1-2.518-4.694,34.468,34.468,0,0,1,1.854-30.98,30.285,30.285,0,0,1,3.026-4.383A34.412,34.412,0,0,1,108.171,42.439ZM41.86,103.446a5.137,5.137,0,0,1,3.129,1.036,5.244,5.244,0,0,1,2.176,4.269,5.145,5.145,0,0,1-.021.58,5.31,5.31,0,1,1-5.284-5.885ZM163.873,111.4a15.915,15.915,0,1,1-15.915,15.915,15.756,15.756,0,0,1,2.6-8.7,15.132,15.132,0,0,1,3.574-3.865A15.762,15.762,0,0,1,163.873,111.4Zm-55.7,29.177a13.262,13.262,0,1,0,13.262,13.262A13.275,13.275,0,0,0,108.171,140.58Zm0,5.3a7.957,7.957,0,1,1-7.957,7.958A7.973,7.973,0,0,1,108.171,145.885Z" transform="translate(-31.25)"/>
</svg>
