<svg xmlns="http://www.w3.org/2000/svg" width="173.119" height="140.358" viewBox="0 0 173.119 140.358">
  <g id="Group_9" data-name="Group 9" transform="translate(0 -48.446)">
    <path id="Path_4" data-name="Path 4" d="M203.836,137.142H105.255a2.538,2.538,0,1,0,0,5.076h98.581a2.538,2.538,0,0,0,0-5.076Z" transform="translate(-67.986 -58.706)"/>
    <path id="Path_5" data-name="Path 5" d="M203.836,218.87H105.255a2.538,2.538,0,1,0,0,5.076h98.581a2.538,2.538,0,0,0,0-5.076Z" transform="translate(-67.986 -112.8)"/>
    <path id="Path_6" data-name="Path 6" d="M234.782,271.91H200.839a2.538,2.538,0,1,0,0,5.076h33.943a2.538,2.538,0,1,0,0-5.076Z" transform="translate(-131.251 -147.906)"/>
    <path id="Path_7" data-name="Path 7" d="M252.868,177.839H179.335a2.538,2.538,0,0,0,0,5.076h73.533a2.538,2.538,0,0,0,0-5.076Z" transform="translate(-117.018 -85.642)"/>
    <path id="Path_8" data-name="Path 8" d="M105.255,182.914H118.5a2.538,2.538,0,0,0,0-5.076h-13.24a2.538,2.538,0,0,0,0,5.076Z" transform="translate(-67.986 -85.642)"/>
    <path id="Path_9" data-name="Path 9" d="M181.629,98.047h0a9.575,9.575,0,0,1-9.585-9.156,3.118,3.118,0,0,0-3.124-2.977H51.232a3.118,3.118,0,0,0-3.124,2.979,9.654,9.654,0,0,1-9.144,9.144,3.118,3.118,0,0,0-2.979,3.124v65.6a3.117,3.117,0,0,0,2.979,3.124,9.655,9.655,0,0,1,9.144,9.146,3.118,3.118,0,0,0,3.124,2.977h74.92a2.538,2.538,0,1,0,0-5.076H52.977a14.563,14.563,0,0,0-11.916-11.917V102.906A14.563,14.563,0,0,0,52.977,90.99h114.2A14.638,14.638,0,0,0,179.693,103v43.1a2.538,2.538,0,1,0,5.076,0V101.175a3.131,3.131,0,0,0-3.14-3.128Z" transform="translate(-23.818 -24.799)"/>
    <path id="Path_10" data-name="Path 10" d="M166.074,48.446H7.045A7.053,7.053,0,0,0,0,55.491V162.834a7.053,7.053,0,0,0,7.045,7.045H113.57l-3.771,7.9a3.015,3.015,0,0,0,3.2,4.275l7.021-1.129,3.916,6.429a3.011,3.011,0,0,0,2.573,1.446c.051,0,.1,0,.154,0a3.012,3.012,0,0,0,2.568-1.712l6.805-14.26,6.8,14.259a3.012,3.012,0,0,0,2.567,1.714c.052,0,.1,0,.155,0a3.011,3.011,0,0,0,2.573-1.446l3.916-6.429,7.021,1.129a3.015,3.015,0,0,0,3.2-4.275l-3.771-7.9h7.574a7.053,7.053,0,0,0,7.045-7.045V55.491A7.053,7.053,0,0,0,166.074,48.446ZM126.289,181.465l-2.657-4.36a3,3,0,0,0-3.053-1.408l-4.509.725,4.749-9.952a9.044,9.044,0,0,0,7.307,2.681,3.962,3.962,0,0,1,2.671.715,9,9,0,0,0,.79.5Zm10.351-15.049-.024,0a3.987,3.987,0,0,1-1.161,0l-.029,0a3.957,3.957,0,0,1-1.689-.685,9.041,9.041,0,0,0-5.238-1.672q-.425,0-.851.04a3.965,3.965,0,0,1-3.978-2.3,9.036,9.036,0,0,0-1.17-1.886c-.02-.029-.043-.056-.064-.084s-.05-.063-.075-.094-.06-.067-.092-.1a9.032,9.032,0,0,0-3.057-2.294,3.967,3.967,0,0,1-2.3-3.978,9.043,9.043,0,0,0-1.631-6.089,3.967,3.967,0,0,1,0-4.593,9.041,9.041,0,0,0,1.632-6.089,3.967,3.967,0,0,1,2.3-3.978,9.04,9.04,0,0,0,4.458-4.458,3.969,3.969,0,0,1,3.978-2.3,9.042,9.042,0,0,0,6.09-1.632,3.967,3.967,0,0,1,4.593,0,9.051,9.051,0,0,0,6.09,1.632,3.965,3.965,0,0,1,3.978,2.3,9.039,9.039,0,0,0,4.457,4.457,3.967,3.967,0,0,1,2.3,3.978,9.042,9.042,0,0,0,1.631,6.089,3.966,3.966,0,0,1,0,4.593,9.044,9.044,0,0,0-1.631,6.089,3.967,3.967,0,0,1-2.3,3.978,9.036,9.036,0,0,0-3.051,2.288c-.034.036-.068.072-.1.11s-.043.054-.065.08-.051.064-.075.1A9.025,9.025,0,0,0,148.4,161.8a3.967,3.967,0,0,1-3.978,2.3,9.054,9.054,0,0,0-6.09,1.631A3.956,3.956,0,0,1,136.64,166.416Zm14.85,9.281a3,3,0,0,0-3.053,1.408l-2.656,4.36-5.3-11.1a9.047,9.047,0,0,0,.79-.5,3.959,3.959,0,0,1,2.671-.715,9.043,9.043,0,0,0,7.307-2.681L156,176.422Zm16.553-12.862a1.971,1.971,0,0,1-1.969,1.969h-10l-1.309-2.742c.066-.035.132-.071.2-.1a9.048,9.048,0,0,0,5.238-9.071,3.966,3.966,0,0,1,.715-2.671,9.047,9.047,0,0,0,0-10.475,3.965,3.965,0,0,1-.715-2.67A9.047,9.047,0,0,0,154.969,128a3.968,3.968,0,0,1-1.955-1.955,9.049,9.049,0,0,0-9.072-5.238,3.96,3.96,0,0,1-2.67-.715,9.047,9.047,0,0,0-10.475,0,3.962,3.962,0,0,1-2.67.715,9.045,9.045,0,0,0-9.071,5.238A3.965,3.965,0,0,1,117.1,128a9.047,9.047,0,0,0-5.238,9.071,3.965,3.965,0,0,1-.715,2.67,9.047,9.047,0,0,0,0,10.475,3.965,3.965,0,0,1,.715,2.67,9.047,9.047,0,0,0,5.238,9.071c.068.031.134.068.2.1l-1.309,2.743H7.045a1.971,1.971,0,0,1-1.969-1.969V55.491a1.971,1.971,0,0,1,1.969-1.969H166.074a1.972,1.972,0,0,1,1.969,1.969V162.835Z"/>
    <path id="Path_11" data-name="Path 11" d="M386.679,303.081a15.768,15.768,0,1,0-15.768,15.768A15.785,15.785,0,0,0,386.679,303.081Zm-15.768,10.692A10.692,10.692,0,1,1,381.6,303.08,10.7,10.7,0,0,1,370.911,313.773Z" transform="translate(-235.061 -158.101)"/>
  </g>
</svg>
